<?xml version="1.0" standalone="no"?>
<!DOCTYPE svg PUBLIC "-//W3C//DTD SVG 20010904//EN"
 "http://www.w3.org/TR/2001/REC-SVG-20010904/DTD/svg10.dtd">
<svg version="1.0" xmlns="http://www.w3.org/2000/svg"
 width="1872.000000pt" height="1872.000000pt" viewBox="0 0 1872.000000 1872.000000"
 preserveAspectRatio="xMidYMid meet">
<metadata>
Created by potrace 1.11, written by Peter Selinger 2001-2013
</metadata>
<g transform="translate(0.000000,1872.000000) scale(0.100000,-0.100000)"
fill="#000000" stroke="none">
<path d="M8107 13788 c-3 -18 -8 -43 -12 -55 -12 -36 20 -29 44 10 24 39 22
71 -6 75 -17 2 -22 -4 -26 -30z"/>
<path d="M6579 13773 c-19 -49 -69 -196 -69 -205 0 -20 41 -6 50 17 8 22 15
25 60 25 44 0 50 -3 50 -20 0 -23 22 -35 45 -26 12 4 8 24 -25 118 -22 62 -40
114 -40 115 0 2 -14 3 -30 3 -24 0 -33 -6 -41 -27z m65 -100 c7 -21 4 -23 -27
-23 -34 0 -35 1 -27 33 4 17 11 41 16 52 7 18 9 17 20 -10 6 -17 15 -40 18
-52z"/>
<path d="M6758 13788 c-2 -7 -4 -60 -3 -118 0 -101 1 -105 23 -108 21 -3 22
-1 22 89 l0 93 41 -79 c51 -99 56 -105 84 -105 30 0 31 6 30 130 0 101 -1 105
-22 108 -22 3 -23 1 -23 -89 l0 -93 -45 92 c-41 85 -47 92 -74 92 -16 0 -31
-6 -33 -12z"/>
<path d="M7043 13781 c-36 -23 -54 -71 -47 -127 7 -54 20 -72 63 -85 84 -25
146 12 157 94 8 54 -7 99 -40 120 -34 21 -97 20 -133 -2z m103 -35 c14 -11 19
-26 19 -66 0 -40 -5 -55 -19 -66 -46 -33 -94 -9 -100 51 -7 79 45 121 100 81z"/>
<path d="M7258 13788 c-2 -7 -4 -60 -3 -118 1 -94 3 -105 19 -108 25 -5 35 14
32 60 -3 34 -1 39 16 36 17 -3 33 -23 58 -78 4 -8 17 -16 29 -18 29 -5 27 21
-4 75 -23 42 -23 43 -4 53 26 15 26 74 -1 93 -27 18 -136 22 -142 5z m110 -55
c3 -17 -3 -24 -23 -29 -28 -7 -38 -2 -41 23 -4 26 5 34 34 31 19 -2 28 -10 30
-25z"/>
<path d="M7521 13783 c-15 -29 -71 -193 -71 -209 0 -25 39 -16 46 11 5 22 11
25 53 25 41 0 49 -3 59 -25 8 -16 20 -25 35 -25 l24 0 -34 102 c-19 55 -38
109 -44 120 -12 23 -55 24 -68 1z m52 -88 l16 -45 -35 0 c-29 0 -34 3 -30 18
3 9 8 29 12 45 9 39 20 34 37 -18z"/>
<path d="M7695 13788 c-3 -7 -4 -60 -2 -118 2 -100 3 -105 25 -108 20 -3 22 1
23 45 1 26 1 55 0 63 -1 8 17 -13 39 -47 32 -49 46 -63 65 -63 14 0 25 2 25 5
0 2 -18 32 -39 66 l-39 62 40 51 c40 50 40 51 17 54 -15 3 -29 -4 -42 -20 -10
-12 -24 -30 -31 -39 -8 -9 -18 -25 -24 -35 -9 -15 -11 -8 -12 39 0 51 -2 57
-20 57 -11 0 -23 -6 -25 -12z"/>
<path d="M7899 13763 c-1 -21 -1 -74 -1 -118 0 -77 0 -80 23 -80 22 0 24 5 25
48 1 27 4 50 7 53 2 2 19 -20 38 -51 25 -41 39 -55 56 -55 31 0 29 11 -13 75
l-36 54 36 49 c20 28 36 52 36 56 0 3 -11 6 -25 6 -17 0 -29 -8 -37 -25 -6
-14 -15 -25 -20 -25 -4 0 -8 -5 -8 -11 0 -13 -30 -44 -31 -32 0 4 -1 26 -2 48
-2 33 -6 41 -24 43 -20 3 -23 -1 -24 -35z"/>
<path d="M8216 13779 c-46 -36 -26 -90 43 -119 19 -8 31 -20 31 -32 0 -25 -25
-33 -66 -20 -32 9 -34 9 -34 -13 0 -24 22 -35 71 -35 34 0 75 33 81 65 6 27
-30 75 -55 75 -19 0 -50 36 -42 49 8 14 52 14 60 1 10 -17 25 -11 25 10 0 41
-71 53 -114 19z"/>
<path d="M8498 13777 c-52 -45 -61 -138 -17 -189 17 -18 30 -22 79 -23 51 0
63 4 86 26 48 49 43 158 -10 192 -34 22 -109 19 -138 -6z m108 -31 c14 -11 19
-26 19 -66 0 -40 -5 -55 -19 -66 -46 -33 -96 -8 -101 52 -5 78 46 120 101 80z"/>
<path d="M8690 13793 c0 -5 13 -30 28 -57 l29 -49 -22 -43 c-12 -24 -28 -50
-35 -58 -10 -13 -9 -17 4 -22 25 -10 46 3 61 38 20 50 26 51 50 5 17 -31 30
-43 50 -45 15 -2 25 0 23 5 -2 4 -17 33 -33 64 l-28 57 31 50 c17 27 28 53 25
56 -18 17 -44 3 -63 -34 -11 -22 -22 -40 -25 -40 -3 0 -14 18 -25 40 -16 30
-26 40 -45 40 -14 0 -25 -3 -25 -7z"/>
<path d="M8943 13779 c-35 -22 -47 -56 -15 -44 35 13 37 10 37 -60 0 -65 -1
-69 -25 -75 -14 -3 -25 -12 -25 -20 0 -12 17 -16 73 -18 67 -3 72 -1 72 18 0
14 -7 20 -23 20 -22 0 -23 3 -22 98 0 90 -2 97 -20 100 -11 1 -35 -7 -52 -19z"/>
<path d="M9189 13788 c-4 -39 -4 -196 -1 -211 3 -12 12 -17 25 -15 18 3 21 10
22 48 0 45 0 45 40 50 55 7 55 33 0 40 -35 4 -40 8 -40 30 0 22 5 25 43 28 34
3 42 7 42 23 0 17 -7 19 -65 19 -45 0 -65 -4 -66 -12z"/>
<path d="M9390 13778 c-31 -73 -77 -208 -72 -213 15 -14 42 -3 48 20 5 22 11
25 53 25 41 0 49 -3 59 -25 13 -29 52 -35 52 -7 -1 9 -18 62 -38 117 -34 91
-40 100 -64 103 -21 3 -30 -2 -38 -20z m56 -90 l14 -38 -36 0 c-39 0 -38 -2
-11 79 9 25 13 29 15 15 2 -10 10 -36 18 -56z"/>
<path d="M9568 13799 c-4 -11 -6 -207 -1 -222 3 -12 12 -17 26 -15 20 3 22 8
19 51 -2 42 0 47 19 47 15 0 26 -12 42 -50 17 -40 26 -50 44 -50 20 0 23 3 17
28 -4 15 -16 40 -27 55 -19 28 -19 28 2 48 24 23 27 57 7 84 -10 14 -30 20
-80 23 -36 2 -67 3 -68 1z m97 -47 c29 -21 10 -52 -32 -52 -19 0 -23 6 -23 30
0 24 4 30 23 30 12 0 27 -4 32 -8z"/>
<path d="M9775 13788 c-2 -7 -3 -60 -2 -118 l2 -105 69 0 c58 0 70 3 72 18 2
14 -6 17 -45 17 -48 0 -48 0 -49 35 -1 34 -1 35 38 35 33 0 40 3 40 20 0 17
-7 20 -41 20 -36 0 -40 2 -37 23 2 18 11 23 48 27 31 3 45 10 45 20 0 20 -133
28 -140 8z"/>
<path d="M9940 13786 c0 -8 4 -26 9 -39 5 -13 12 -37 15 -53 3 -16 11 -51 19
-79 12 -45 16 -50 44 -53 29 -3 33 0 42 35 6 21 14 55 17 76 4 20 10 37 13 37
4 0 15 -34 25 -76 18 -75 18 -75 49 -72 27 3 33 8 44 48 7 25 21 74 32 110 20
71 19 80 -9 80 -15 0 -22 -14 -36 -77 -9 -43 -20 -84 -23 -91 -4 -7 -18 28
-30 78 -21 80 -26 90 -47 90 -23 0 -32 -18 -50 -100 -4 -19 -9 -38 -10 -42 -1
-5 -2 -15 -3 -24 -3 -36 -19 1 -36 81 -16 78 -20 85 -41 85 -14 0 -24 -6 -24
-14z"/>
<path d="M10299 13770 c0 -16 -1 -61 -1 -100 0 -121 -7 -110 72 -110 63 0 70
2 70 20 0 17 -7 20 -43 20 -53 0 -55 2 -49 40 4 28 7 30 44 30 32 0 39 3 36
18 -2 12 -14 18 -41 20 -32 3 -37 7 -37 28 0 22 4 24 45 24 38 0 45 3 45 20 0
18 -7 20 -70 20 l-70 0 -1 -30z"/>
<path d="M10479 13781 c0 -12 -1 -57 -1 -101 0 -44 1 -89 1 -100 1 -18 8 -20
66 -20 58 0 65 2 65 20 0 17 -7 20 -40 20 -35 0 -40 3 -41 23 0 12 -1 56 -2
97 -2 70 -4 75 -24 78 -17 3 -23 -2 -24 -17z"/>
<path d="M10639 13783 c-1 -17 -1 -87 0 -180 l1 -43 65 0 c58 0 65 2 65 20 0
17 -7 20 -40 20 -31 0 -40 4 -41 18 -1 9 -2 53 -2 97 -2 75 -3 80 -24 83 -16
2 -23 -2 -24 -15z"/>
<path d="M10889 13798 c-5 -8 -6 -206 -2 -221 3 -12 12 -17 26 -15 19 3 22 9
20 41 -1 33 1 37 22 37 88 0 129 110 55 147 -21 11 -117 19 -121 11z m101 -58
c15 -28 -4 -60 -35 -60 -22 0 -25 5 -25 33 0 19 3 37 7 40 13 14 43 6 53 -13z"/>
<path d="M11115 13788 c-3 -7 -20 -56 -40 -108 -19 -52 -35 -101 -35 -107 0
-24 40 -14 50 12 8 22 16 25 55 25 39 0 47 -3 55 -25 7 -17 17 -25 34 -25 28
0 29 -4 -23 144 -17 49 -31 91 -31 93 0 10 -61 1 -65 -9z m59 -115 c7 -21 4
-23 -28 -23 -20 0 -36 1 -36 3 0 2 8 26 17 53 l17 49 12 -30 c6 -17 15 -40 18
-52z"/>
<path d="M11288 13783 c-3 -15 -3 -170 1 -210 1 -7 11 -13 24 -13 21 0 23 4
21 51 -1 46 1 50 20 47 14 -2 28 -19 43 -50 16 -34 29 -48 43 -48 26 0 25 16
-2 71 -22 43 -22 45 -5 62 12 12 17 29 15 50 -4 40 -35 57 -104 57 -41 0 -52
-4 -56 -17z m107 -33 c3 -6 3 -19 0 -31 -5 -15 -14 -19 -33 -17 -21 2 -27 9
-29 31 -2 24 2 27 27 27 16 0 32 -5 35 -10z"/>
<path d="M11470 13780 c0 -16 7 -20 35 -20 l34 0 0 -82 c-1 -123 -2 -120 24
-116 21 3 22 7 22 101 l-1 97 33 0 c19 0 33 5 33 12 0 20 16 -2 48 -67 19 -38
29 -72 27 -92 -3 -39 7 -56 31 -51 16 3 19 11 16 47 -2 33 6 57 33 108 41 77
42 83 12 83 -18 0 -27 -10 -41 -45 -11 -25 -22 -45 -27 -45 -4 0 -15 20 -25
44 l-19 44 -117 1 c-112 1 -118 0 -118 -19z"/>
<path d="M6869 13298 c-1 -7 -2 -109 -2 -226 l-2 -213 -42 -39 c-24 -22 -43
-44 -43 -50 0 -6 -4 -8 -10 -5 -5 3 -10 -2 -10 -11 0 -10 -3 -15 -6 -11 -4 3
-13 -1 -22 -9 -12 -13 -15 -44 -14 -172 0 -86 1 -165 1 -174 1 -12 9 -18 24
-18 12 0 28 -9 35 -21 7 -12 16 -18 19 -15 4 3 20 -5 38 -18 17 -13 40 -26 51
-28 10 -1 28 -11 38 -20 11 -10 28 -18 37 -18 10 0 19 -3 21 -7 2 -5 31 -23
66 -41 l62 -33 0 26 c0 14 7 28 15 31 8 4 15 14 15 23 0 14 2 14 10 1 5 -8 10
-10 10 -5 0 6 10 -5 21 -22 12 -18 26 -33 31 -33 6 0 8 -6 5 -14 -3 -8 3 -22
14 -32 10 -9 19 -23 19 -31 0 -7 4 -13 9 -13 5 0 8 -12 6 -26 -4 -38 18 -55
58 -43 39 12 67 18 106 23 15 2 34 7 41 11 9 6 11 4 5 -5 -5 -9 -2 -10 13 -6
41 13 62 15 68 4 4 -7 9 -7 13 0 3 6 38 12 76 14 39 2 76 7 83 11 7 5 12 3 12
-3 0 -6 4 -8 10 -5 11 7 53 11 195 21 55 3 123 8 150 11 28 2 69 5 92 5 24 0
41 3 39 7 -2 3 30 6 72 7 113 1 206 9 220 18 7 4 12 2 12 -6 0 -8 3 -9 8 -3 4
6 40 10 79 10 40 0 73 2 73 5 0 3 20 5 45 4 25 -1 45 2 45 8 0 5 7 5 18 -1 10
-5 24 -6 32 -1 8 5 21 5 29 2 15 -7 34 -8 54 -2 4 1 22 2 40 3 l32 1 1 -252 1
-252 -1359 0 -1358 0 0 -2500 0 -2500 2900 0 2900 0 0 2500 0 2500 -1504 0
c-1495 0 -1504 0 -1509 20 -3 11 -2 22 1 24 4 2 5 38 2 80 -3 42 -1 76 4 76 5
0 4 6 -2 13 -7 8 -7 18 -2 27 5 9 5 19 -2 27 -8 10 -7 13 3 13 10 0 10 3 1 12
-8 8 -8 17 -1 31 7 12 7 23 1 29 -5 5 -6 24 -2 43 4 18 4 39 -1 46 -4 7 -5 18
-1 24 4 5 7 17 7 25 0 17 85 24 85 6 0 -8 3 -8 8 -1 9 14 55 13 64 0 5 -6 8
-5 8 3 0 8 5 10 12 6 17 -11 58 -11 58 -1 0 4 6 5 13 0 6 -4 37 -9 67 -10 97
-3 315 -19 362 -27 7 -1 19 -6 27 -10 9 -6 12 -5 7 2 -4 8 4 10 26 6 53 -7 98
-12 178 -19 41 -3 91 -8 110 -10 19 -2 54 -5 78 -6 23 -2 42 -8 42 -13 0 -7 3
-8 8 -1 9 13 32 18 32 7 0 -4 19 -9 43 -9 70 -3 111 -8 122 -15 6 -4 17 -3 25
2 8 5 19 5 25 0 5 -4 35 -11 65 -13 61 -6 95 -13 110 -22 6 -3 10 -2 10 4 0 5
12 4 28 -5 15 -7 33 -14 39 -14 10 0 26 35 28 61 0 3 8 13 18 23 9 10 17 22
17 27 0 5 4 9 10 9 5 0 30 20 56 45 25 25 50 45 56 45 6 0 8 -3 5 -7 -4 -3 -1
-13 7 -22 8 -9 16 -20 18 -26 3 -11 14 -11 68 1 19 4 52 8 73 8 20 0 37 3 37
7 0 10 97 33 138 34 38 0 62 25 87 93 9 23 21 42 26 42 5 0 8 3 8 8 -4 21 4
36 39 72 l37 40 1 126 0 126 -36 37 c-58 60 -63 81 -64 326 l-1 220 -2238 3
c-1786 2 -2237 0 -2238 -10z"/>
<path d="M0 9160 l0 -3270 2880 0 2880 0 0 3270 0 3270 -2880 0 -2880 0 0
-3270z"/>
<path d="M12960 9160 l0 -3270 2880 0 2880 0 0 3270 0 3270 -2880 0 -2880 0 0
-3270z"/>
<path d="M7505 5803 c-52 -148 -95 -276 -95 -284 0 -6 9 -9 20 -7 17 2 30 30
72 148 65 187 66 190 40 190 -15 0 -24 -12 -37 -47z"/>
<path d="M7677 5833 c-3 -10 -28 -84 -56 -165 -28 -80 -51 -149 -51 -152 0
-12 41 -6 45 7 2 6 25 69 50 139 59 167 64 188 37 188 -11 0 -22 -8 -25 -17z"/>
<path d="M10905 5838 c-3 -7 -29 -84 -60 -170 -53 -155 -54 -158 -31 -158 19
0 26 11 46 68 14 37 25 70 26 75 1 4 2 8 3 10 5 9 61 173 61 180 0 12 -40 8
-45 -5z"/>
<path d="M11045 5773 c-14 -43 -30 -87 -35 -98 -12 -30 -50 -148 -50 -157 0
-4 9 -8 19 -8 14 0 24 13 35 43 44 121 96 276 96 286 0 6 -8 11 -19 11 -14 0
-25 -18 -46 -77z"/>
<path d="M5279 5803 c-1 -5 -3 -44 -4 -88 -3 -109 -3 -106 -22 -104 -31 3 -34
0 -23 -21 12 -23 48 -26 75 -6 16 11 19 28 20 107 1 52 0 100 -3 107 -4 13
-41 17 -43 5z"/>
<path d="M5422 5796 c-69 -32 -77 -157 -14 -207 39 -30 112 -23 153 17 29 27
31 33 27 92 -3 46 -9 68 -25 83 -27 27 -97 34 -141 15z m102 -48 c37 -53 7
-138 -48 -138 -44 0 -66 42 -56 110 7 49 77 67 104 28z"/>
<path d="M5629 5798 c0 -13 0 -193 1 -215 0 -9 20 -13 65 -13 58 0 65 2 65 20
0 17 -7 20 -40 20 -25 0 -40 5 -41 13 -1 6 -2 50 -2 97 -2 80 -3 85 -24 88
-14 2 -23 -2 -24 -10z"/>
<path d="M5789 5731 c0 -45 -1 -94 -1 -111 0 -16 1 -34 1 -40 1 -6 30 -10 66
-10 58 0 65 2 65 20 0 17 -7 20 -42 20 l-43 0 0 98 c0 93 -1 97 -22 100 -22 3
-23 0 -24 -77z"/>
<path d="M5890 5805 c0 -2 17 -37 37 -76 24 -48 37 -86 38 -113 0 -35 3 -41
23 -44 20 -3 22 1 22 43 0 32 10 66 35 115 19 38 35 72 35 75 0 3 -10 5 -23 5
-18 0 -29 -11 -47 -51 l-24 -50 -22 50 c-19 42 -27 51 -48 51 -14 0 -26 -2
-26 -5z"/>
<path d="M6195 5798 c-2 -7 -3 -60 -2 -118 l2 -105 52 -3 c54 -3 112 17 114
41 1 6 3 22 4 34 1 12 -7 32 -18 43 -14 16 -16 25 -8 33 18 18 13 55 -11 71
-28 20 -127 22 -133 4z m104 -42 c9 -10 8 -16 -3 -25 -22 -18 -51 -9 -54 17
-3 18 1 22 21 22 14 0 30 -6 36 -14z m10 -90 c19 -23 -3 -56 -38 -56 -26 0
-29 3 -29 35 0 32 3 35 28 35 15 0 33 -6 39 -14z"/>
<path d="M6408 5798 c-2 -7 -3 -60 -3 -118 1 -93 3 -105 19 -108 25 -5 34 12
31 59 -2 31 1 39 15 39 22 0 34 -15 51 -62 10 -29 18 -38 36 -38 29 0 29 15 0
72 -22 43 -22 46 -5 57 24 15 23 66 -2 91 -15 15 -33 20 -79 20 -38 0 -60 -4
-63 -12z m107 -58 c0 -21 -5 -26 -31 -28 -30 -3 -32 -1 -30 28 1 28 4 31 31
28 25 -2 30 -8 30 -28z"/>
<path d="M6654 5791 c-48 -29 -63 -96 -39 -172 17 -53 135 -64 182 -17 49 50
39 164 -17 193 -40 20 -89 19 -126 -4z m107 -37 c18 -22 19 -94 1 -121 -14
-23 -55 -31 -78 -15 -19 12 -34 50 -30 74 3 13 5 28 5 35 3 38 76 58 102 27z"/>
<path d="M6869 5808 c-4 -8 -5 -215 -1 -225 3 -9 26 -13 67 -13 58 0 64 2 62
20 -1 17 -8 20 -43 20 l-41 0 2 88 c1 48 -1 93 -3 100 -3 10 -39 18 -43 10z"/>
<path d="M7025 5798 c-3 -12 0 -202 3 -220 2 -9 116 -11 125 -2 15 16 -8 34
-44 34 l-38 0 1 63 c1 129 0 137 -22 137 -11 0 -22 -6 -25 -12z"/>
<path d="M7130 5805 c0 -3 16 -37 35 -75 25 -49 35 -83 35 -115 0 -41 2 -45
24 -45 23 0 25 4 24 50 0 39 8 64 36 114 20 35 36 67 36 70 0 3 -11 6 -24 6
-19 0 -29 -11 -48 -51 l-24 -51 -24 51 c-18 40 -28 51 -47 51 -13 0 -23 -2
-23 -5z"/>
<path d="M7820 5790 c0 -16 7 -20 34 -20 l33 0 -1 -97 c-1 -94 0 -98 22 -101
25 -4 24 -9 24 116 l0 82 34 0 c27 0 34 4 34 20 0 19 -7 20 -90 20 -83 0 -90
-1 -90 -20z"/>
<path d="M8028 5798 c-2 -7 -4 -60 -3 -118 l1 -105 69 0 c58 0 70 3 73 18 3
14 -4 17 -46 17 l-49 0 0 35 c0 34 2 35 38 35 22 0 39 5 42 14 8 20 -2 26 -43
26 -32 0 -37 3 -36 23 1 19 8 23 46 27 32 4 46 10 48 23 3 15 -5 17 -66 17
-47 0 -71 -4 -74 -12z"/>
<path d="M8220 5752 l32 -60 -31 -54 c-17 -30 -31 -58 -31 -61 0 -4 11 -7 25
-7 20 0 29 9 46 45 12 25 24 43 28 40 4 -2 16 -22 26 -45 14 -30 24 -40 42
-40 29 0 29 15 -2 65 -31 50 -31 70 0 120 31 50 31 55 0 55 -14 0 -25 -3 -25
-7 0 -5 -9 -23 -21 -42 l-21 -34 -22 39 c-16 29 -29 40 -50 42 l-28 4 32 -60z"/>
<path d="M8390 5790 c0 -16 7 -20 35 -20 l34 0 0 -67 c-2 -131 -1 -135 24
-131 21 3 22 7 21 101 l0 97 33 0 c26 0 33 4 33 20 0 19 -7 20 -90 20 -83 0
-90 -1 -90 -20z"/>
<path d="M8599 5808 c-1 -5 -1 -94 0 -140 2 -74 48 -108 127 -94 62 12 78 67
65 224 -1 6 -10 12 -20 12 -25 0 -28 -12 -25 -90 2 -75 -14 -110 -50 -110 -39
0 -49 23 -48 115 0 83 0 85 -24 85 -13 0 -24 -1 -25 -2z"/>
<path d="M8848 5804 c-3 -5 -5 -58 -4 -119 1 -106 2 -110 24 -113 23 -4 26 3
22 66 -1 26 2 32 20 32 15 0 26 -13 43 -50 17 -39 27 -50 45 -50 28 0 28 11
-2 70 -23 46 -23 48 -5 64 23 20 25 62 3 84 -18 18 -138 31 -146 16z m107 -55
c8 -24 -8 -39 -41 -39 -16 0 -21 6 -22 30 -1 27 3 30 28 30 20 0 31 -6 35 -21z"/>
<path d="M9054 5797 c-2 -7 -3 -60 -2 -118 l3 -104 64 -3 c44 -2 67 1 72 10
13 20 0 28 -47 28 -44 0 -44 0 -44 35 0 34 1 35 40 35 33 0 40 3 40 20 0 17
-7 20 -40 20 -36 0 -40 3 -40 25 0 23 4 25 43 25 48 0 58 5 50 26 -7 19 -131
20 -139 1z"/>
<path d="M9327 5803 c-4 -3 -7 -57 -7 -120 l0 -113 25 0 25 0 -3 99 c-1 55 0
97 3 95 2 -3 18 -47 36 -97 27 -81 33 -92 54 -92 21 0 28 11 55 87 17 48 33
89 35 92 3 2 5 -37 5 -87 0 -90 0 -92 24 -92 23 0 23 2 23 90 -1 160 3 147
-39 143 -37 -3 -38 -4 -67 -80 -16 -43 -32 -78 -35 -78 -3 0 -17 33 -30 73
-13 39 -29 75 -35 79 -14 10 -60 10 -69 1z"/>
<path d="M9704 5793 c-3 -10 -14 -40 -25 -67 -10 -27 -19 -52 -19 -57 0 -4 -5
-20 -12 -36 -20 -50 -20 -63 2 -63 12 0 25 10 32 25 10 22 18 25 59 25 42 0
48 -3 53 -25 5 -18 13 -25 31 -25 14 0 25 1 25 3 0 4 -66 198 -75 220 -5 11
-18 17 -36 17 -19 0 -32 -6 -35 -17z m46 -58 c5 -14 13 -37 16 -50 6 -23 3
-25 -29 -25 l-35 0 16 50 c9 28 17 50 19 50 2 0 8 -11 13 -25z"/>
<path d="M9919 5795 c-41 -22 -57 -55 -55 -114 1 -46 6 -57 32 -81 27 -23 40
-27 88 -27 32 0 63 5 70 12 10 10 14 73 7 118 0 4 -23 7 -50 7 -44 0 -50 -2
-48 -20 1 -15 8 -20 28 -20 24 0 27 -4 25 -27 -3 -23 -9 -29 -32 -31 -42 -4
-74 29 -74 76 0 20 4 42 8 48 21 32 97 45 120 22 10 -10 15 -10 21 1 5 8 7 20
4 27 -10 26 -101 32 -144 9z"/>
<path d="M10199 5768 c-1 -40 -1 -158 0 -185 1 -18 93 -17 136 1 40 17 54 41
60 99 5 51 -21 102 -61 117 -14 6 -50 10 -80 10 l-54 0 -1 -42z m131 -25 c39
-50 8 -133 -52 -133 -15 0 -28 3 -29 8 -1 10 -1 124 0 140 2 24 58 13 81 -15z"/>
<path d="M10459 5798 c-1 -7 -3 -47 -4 -88 -3 -108 -2 -103 -29 -96 -25 6 -29
-5 -13 -31 11 -17 48 -16 72 1 16 11 19 28 20 107 2 109 0 119 -26 119 -10 0
-20 -6 -20 -12z"/>
<path d="M10572 5794 c-32 -22 -30 -76 4 -103 15 -12 32 -21 39 -21 20 0 36
-26 29 -45 -7 -17 -42 -17 -85 0 -12 4 -16 1 -15 -15 1 -27 22 -40 67 -40 37
0 89 36 89 62 -1 36 -15 57 -51 74 -40 17 -64 45 -52 58 10 10 61 7 68 -4 9
-14 24 -3 21 16 -5 35 -74 46 -114 18z"/>
<path d="M11210 5798 c1 -7 13 -60 29 -118 27 -103 28 -105 59 -108 33 -3 38
6 58 106 11 53 20 45 38 -33 17 -72 19 -75 46 -75 30 0 39 7 45 37 2 10 14 57
28 105 13 48 22 90 19 93 -3 3 -13 5 -23 5 -14 0 -21 -17 -35 -77 -10 -43 -18
-81 -19 -85 0 -3 -3 -9 -6 -13 -4 -3 -17 35 -29 85 -21 87 -24 91 -48 88 -23
-3 -27 -11 -44 -78 -11 -41 -20 -80 -20 -87 -2 -25 -16 -2 -23 39 -5 24 -9 45
-10 48 -1 3 -5 22 -9 43 -7 30 -13 37 -32 37 -13 0 -24 -6 -24 -12z"/>
<path d="M11568 5748 c-1 -35 -2 -89 0 -120 l3 -58 69 0 c63 0 70 2 70 20 0
17 -7 20 -48 20 -45 0 -48 2 -46 23 1 12 3 28 3 35 1 7 16 12 40 12 32 0 39 3
37 18 -2 12 -14 18 -43 20 -37 3 -40 5 -35 28 4 21 10 24 48 24 37 0 44 3 44
20 0 18 -7 20 -69 20 l-69 0 -4 -62z"/>
<path d="M11730 5790 c0 -16 7 -20 33 -20 l33 0 -1 -97 c0 -94 1 -98 23 -101
25 -4 24 -8 24 116 l0 82 34 0 c27 0 34 4 34 20 0 19 -7 20 -90 20 -83 0 -90
-1 -90 -20z"/>
<path d="M12020 5690 l0 -120 25 0 c23 0 25 3 25 50 l0 50 45 0 45 0 0 -50 c0
-47 2 -50 25 -50 l25 0 0 120 0 120 -25 0 c-23 0 -25 -3 -25 -50 l0 -50 -45 0
-45 0 0 50 c0 47 -2 50 -25 50 l-25 0 0 -120z"/>
<path d="M12309 5783 c-20 -50 -69 -198 -69 -205 0 -20 41 -6 50 17 8 22 15
25 59 25 44 0 49 -3 55 -25 5 -19 13 -25 32 -25 17 0 25 5 22 13 -3 6 -22 60
-43 120 -36 103 -39 107 -67 107 -22 0 -31 -6 -39 -27z m67 -120 c-2 -2 -17
-3 -34 -1 l-29 3 14 50 15 50 19 -49 c11 -27 18 -51 15 -53z"/>
<path d="M12489 5803 c-3 -26 -4 -210 -1 -220 2 -7 13 -13 23 -13 17 0 19 8
19 92 l0 91 36 -69 c58 -110 62 -116 92 -112 l27 3 0 115 c0 112 -1 115 -23
118 -21 3 -22 1 -23 -90 l0 -93 -17 42 c-9 23 -21 45 -25 49 -4 5 -16 28 -27
51 -16 37 -23 43 -49 43 -17 0 -31 -3 -32 -7z"/>
<path d="M12735 5798 c-3 -7 -4 -60 -2 -118 l2 -105 45 -3 c98 -7 150 33 150
118 0 55 -22 95 -61 109 -44 15 -128 14 -134 -1z m117 -40 c27 -22 36 -49 27
-87 -9 -41 -32 -61 -70 -61 l-27 0 0 80 0 80 27 0 c15 0 34 -6 43 -12z"/>
<path d="M12999 5803 c-9 -2 -22 -15 -29 -29 -20 -36 -3 -72 45 -99 53 -29 55
-60 5 -59 -19 0 -43 4 -52 8 -14 6 -16 4 -13 -14 6 -32 11 -35 65 -35 57 0 90
24 90 66 0 33 -19 54 -67 74 -24 10 -34 20 -31 32 4 21 45 30 61 14 15 -15 27
-14 27 3 0 36 -47 54 -101 39z"/>
<path d="M8789 5208 c-4 -9 -4 -305 -1 -315 2 -7 13 -13 23 -13 18 0 19 10 19
165 0 158 -1 165 -20 165 -11 0 -20 -1 -21 -2z"/>
<path d="M9819 5203 c-1 -9 0 -292 0 -310 1 -20 41 -16 42 5 1 24 1 262 0 290
-1 15 -7 22 -21 22 -11 0 -20 -3 -21 -7z"/>
<path d="M11299 5188 c-1 -23 -1 -258 0 -290 1 -11 9 -18 21 -18 22 0 21 -10
22 165 0 171 1 165 -22 165 -14 0 -20 -7 -21 -22z"/>
<path d="M6499 5163 c-1 -29 -1 -166 0 -195 1 -22 6 -28 24 -28 22 0 23 2 22
95 -1 52 1 93 3 90 2 -2 18 -43 36 -92 25 -70 36 -89 53 -91 22 -3 39 31 73
146 7 23 15 40 18 37 3 -3 4 -45 4 -95 l-2 -90 25 0 26 0 -3 118 -3 117 -34 0
c-20 0 -37 -6 -42 -15 -20 -39 -38 -83 -44 -110 -4 -16 -10 -30 -14 -30 -5 0
-18 30 -31 68 -28 84 -35 92 -76 92 -25 0 -34 -4 -35 -17z"/>
<path d="M6875 5166 c-39 -17 -58 -54 -57 -111 1 -96 78 -142 167 -99 55 26
74 108 40 174 -25 48 -88 63 -150 36z m99 -48 c9 -12 16 -38 16 -58 0 -69 -57
-104 -102 -63 -24 21 -25 99 -1 125 23 25 68 23 87 -4z"/>
<path d="M7079 5158 c-1 -27 -1 -163 0 -195 1 -16 7 -23 21 -23 22 0 22 4 22
120 l-1 64 48 -89 c43 -82 49 -90 76 -90 l30 0 0 115 c0 108 -1 115 -20 115
-18 0 -20 -7 -20 -87 0 -47 -2 -84 -5 -82 -3 3 -23 42 -45 87 -37 75 -43 82
-73 85 -27 3 -32 0 -33 -20z"/>
<path d="M7428 5160 c-34 -26 -40 -62 -16 -101 18 -29 22 -31 62 -27 38 5 43
3 39 -13 -8 -30 -31 -42 -68 -36 -30 5 -35 3 -35 -13 0 -25 40 -36 83 -23 51
14 74 71 68 166 -2 29 -47 67 -79 67 -16 0 -41 -9 -54 -20z m81 -42 c12 -33 3
-48 -29 -48 -19 0 -29 6 -33 19 -12 45 46 72 62 29z"/>
<path d="M7580 5160 c0 -16 7 -20 33 -20 l33 0 0 -97 c-1 -97 0 -98 24 -98 24
0 24 0 22 98 l-2 97 35 0 c28 0 35 4 35 20 0 19 -7 20 -90 20 -83 0 -90 -1
-90 -20z"/>
<path d="M7788 5173 c-3 -7 -3 -169 1 -215 1 -12 9 -18 24 -18 21 0 23 4 22
48 l0 47 46 3 c44 3 46 2 46 -25 1 -71 2 -75 26 -71 21 3 22 6 22 118 -1 103
-3 115 -19 118 -25 5 -33 -10 -31 -58 l1 -40 -46 0 -46 0 1 48 c0 41 -3 47
-22 50 -11 2 -23 0 -25 -5z"/>
<path d="M8097 5173 c-2 -5 10 -59 26 -121 l30 -113 31 3 c26 3 32 9 43 48 8
25 16 58 19 75 8 43 11 42 24 -12 6 -26 14 -61 18 -78 6 -24 14 -31 39 -33 35
-4 36 -3 73 145 25 100 25 95 -2 91 -20 -3 -26 -15 -44 -98 l-21 -94 -22 84
c-12 47 -24 91 -26 98 -3 6 -15 12 -28 12 -23 0 -26 -7 -47 -97 l-23 -98 -14
60 c-28 123 -33 135 -53 135 -10 0 -21 -3 -23 -7z"/>
<path d="M8450 5060 l0 -120 25 0 c24 0 25 3 25 63 l0 62 33 -54 c36 -60 56
-77 81 -68 14 6 10 15 -24 66 l-41 60 35 47 c40 53 44 64 19 64 -25 0 -34 -8
-68 -60 l-30 -45 -3 53 c-3 48 -5 52 -28 52 l-24 0 0 -120z"/>
<path d="M9038 5159 c-16 -11 -28 -27 -28 -35 0 -17 5 -17 31 -4 18 10 19 7
19 -65 0 -73 -1 -75 -25 -75 -19 0 -25 -5 -25 -20 0 -19 5 -21 72 -18 59 2 72
6 74 21 2 12 -5 17 -22 17 -24 0 -24 1 -24 100 0 97 -1 100 -22 100 -13 0 -35
-10 -50 -21z"/>
<path d="M9228 5159 c-16 -11 -28 -27 -28 -35 0 -17 5 -17 31 -4 18 10 19 7
19 -65 0 -73 -1 -75 -25 -75 -18 0 -25 -5 -25 -20 0 -18 7 -20 74 -20 65 0 74
2 72 18 -2 9 -13 18 -24 20 -21 3 -22 9 -22 103 0 96 -1 99 -22 99 -13 0 -35
-10 -50 -21z"/>
<path d="M9515 5167 c-8 -4 -15 -17 -15 -28 0 -16 3 -18 19 -9 25 13 58 13 66
0 10 -16 -13 -38 -43 -42 -16 -2 -28 -10 -30 -20 -3 -14 4 -18 32 -18 43 0 63
-27 42 -55 -10 -14 -22 -17 -54 -12 -36 4 -42 3 -42 -13 0 -37 103 -38 143 -3
30 28 16 103 -21 103 -13 0 -12 3 6 16 29 20 29 59 -2 79 -24 16 -75 17 -101
2z"/>
<path d="M10089 5169 c-60 -22 -80 -152 -32 -201 39 -39 155 -32 148 9 -1 10
-9 16 -16 14 -50 -15 -77 -12 -93 10 -23 34 -21 94 5 120 20 20 41 22 88 8 7
-2 15 4 16 14 6 32 -60 46 -116 26z"/>
<path d="M10239 5151 c0 -17 -1 -60 -1 -96 0 -119 0 -117 25 -113 21 3 22 6
22 118 0 112 -1 115 -22 118 -19 3 -23 -1 -24 -27z"/>
<path d="M10338 5169 c-2 -8 -4 -61 -4 -119 l1 -105 25 0 c23 0 25 3 24 48 0
66 27 65 61 -3 18 -35 31 -50 45 -50 26 0 25 16 -3 72 -22 43 -22 46 -5 57 22
13 24 59 4 86 -18 24 -140 36 -148 14z m110 -56 c3 -17 -3 -24 -23 -29 -31 -8
-40 -1 -40 32 -1 22 3 25 30 22 22 -2 31 -9 33 -25z"/>
<path d="M10549 5171 c0 -6 0 -40 0 -76 0 -163 -1 -157 24 -153 20 3 22 9 22
56 -1 28 2 52 5 52 3 0 21 -25 40 -55 25 -40 41 -55 58 -55 30 0 28 11 -14 75
l-36 54 36 49 c20 28 36 52 36 56 0 3 -11 6 -24 6 -18 0 -32 -13 -56 -50 -18
-28 -35 -49 -37 -46 -3 3 -6 24 -7 48 -1 36 -4 43 -23 46 -13 2 -23 -1 -24 -7z"/>
<path d="M10749 5113 c-2 -95 1 -115 17 -140 16 -25 68 -38 114 -28 48 11 63
43 64 143 1 83 0 87 -21 90 -26 4 -25 6 -27 -94 -1 -77 -14 -104 -51 -104 -38
0 -48 25 -49 113 -1 77 -2 82 -23 85 -22 3 -23 0 -24 -65z"/>
<path d="M11013 5165 c-26 -19 -34 -59 -16 -85 8 -11 32 -29 54 -40 35 -18 38
-23 28 -41 -11 -21 -39 -23 -81 -4 -14 5 -18 2 -18 -14 0 -24 27 -41 65 -41
30 0 85 29 86 45 0 5 2 18 4 29 4 21 -26 53 -73 78 -18 9 -32 22 -32 28 0 18
31 24 61 13 36 -14 46 0 19 27 -24 24 -67 26 -97 5z"/>
<path d="M11574 5170 c-26 -10 -31 -18 -38 -56 -3 -16 -10 -30 -16 -32 -12 -4
-14 -42 -1 -42 16 0 20 -40 5 -54 -8 -8 -14 -22 -14 -30 0 -13 14 -16 80 -16
73 0 80 2 80 20 0 17 -7 20 -43 20 -42 0 -44 1 -45 30 -1 27 3 30 29 30 22 0
29 5 29 20 0 16 -7 20 -30 20 -23 0 -30 5 -30 19 0 30 26 46 54 33 19 -8 25
-8 30 3 13 34 -42 55 -90 35z"/>
<path d="M11710 5115 l0 -65 39 0 c46 0 71 -22 54 -48 -8 -12 -24 -17 -57 -15
-39 1 -46 -2 -46 -17 0 -14 10 -21 35 -26 68 -12 113 13 120 68 4 31 0 40 -21
57 -15 12 -40 21 -55 21 -24 0 -29 4 -29 25 0 23 3 25 49 25 44 0 49 2 44 20
-5 17 -14 20 -69 20 l-64 0 0 -65z"/>
<path d="M9370 5030 c0 -17 7 -20 44 -20 28 0 46 5 49 14 8 21 -2 26 -50 26
-36 0 -43 -3 -43 -20z"/>
</g>
</svg>
